<svg version="1.1" id="Layer_1" xmlns="http://www.w3.org/2000/svg" xmlns:xlink="http://www.w3.org/1999/xlink" x="0px" y="0px"
	 width="834.783px" height="184.347px" viewBox="0 0 834.783 184.347" enable-background="new 0 0 834.783 184.347"
	 xml:space="preserve">
<g>
	<path fill="none" stroke="#FFFFFF" stroke-miterlimit="10" d="M6.87,7.334h36.621v170.898H6.87V7.334z"/>
	<path fill="none" stroke="#FFFFFF" stroke-miterlimit="10" d="M98.911,20.03c0,8.221-2.951,15.32-8.85,21.301
		c-5.901,5.981-12.798,8.972-20.691,8.972c-2.686,0-4.721-0.406-6.104-1.221c-0.977-0.406-1.465-0.895-1.465-1.465
		c0-0.65,0.732-0.977,2.197-0.977c1.301-0.162,2.644-0.324,4.028-0.488c2.115-0.406,4.108-1.057,5.981-1.953
		c3.418-1.545,6.021-3.418,7.813-5.615c2.277-2.766,3.418-6.104,3.418-10.01c0-2.033-0.53-3.885-1.587-5.554
		c-1.059-1.667-2.483-2.502-4.272-2.502c-1.791,0-3.216,0.408-4.272,1.221c-0.652,0.57-1.202,1.324-1.648,2.258
		c-0.448,0.937-0.958,1.404-1.526,1.404c-0.57,0-1.181-0.324-1.831-0.977c-2.117-1.871-3.174-4.963-3.174-9.277
		c0-3.58,1.484-6.388,4.456-8.423c2.97-2.033,6.531-3.052,10.681-3.052c5.939,0,10.416,1.995,13.428,5.981
		C97.77,12.666,98.911,16.124,98.911,20.03z"/>
	<path fill="none" stroke="#FFFFFF" stroke-miterlimit="10" d="M164.462,153.819l-16.724-52.49v76.904h-36.621V7.334h36.621
		l24.414,81.787l24.414-81.787h36.621v170.898h-36.621v-76.904l-16.724,52.49H164.462z"/>
	<path fill="#fff" stroke="#FFFFFF" stroke-miterlimit="10" d="M312.778,159.922l-2.686,18.311h-36.621L306.43,7.334h36.621
		l32.959,170.898h-36.621l-2.563-18.311H312.778z M332.431,128.184l-7.446-53.711l-7.69,53.711H332.431z"/>
	<path fill="#fff" stroke="#FFFFFF" stroke-miterlimit="10" d="M416.293,178.233h-36.621V7.334h36.621l24.414,85.449V7.334h36.621
		v170.898h-36.621l-24.414-85.449V178.233z"/>
	<path fill="#fff" stroke="#FFFFFF" stroke-miterlimit="10" d="M574.985,7.334v31.738h-48.828v37.842h36.621v31.738h-36.621v37.842
		h48.828v31.738h-85.449V7.334H574.985z"/>
	<path fill="#fff" stroke="#FFFFFF" stroke-miterlimit="10" d="M607.822,92.784c-13.754-12.207-20.63-25.227-20.63-39.063
		c0-32.551,16.275-48.828,48.828-48.828c32.551,0,48.828,16.277,48.828,48.828h-36.621c0.813-9.357-1.873-15.238-8.057-17.639
		c-6.186-2.399-11.557-0.671-16.113,5.188c-5.779,13.184,2.277,26.287,24.17,39.307c6.104,4.07,11.433,8.139,15.991,12.207
		c13.752,12.207,20.63,25.229,20.63,39.063c0,32.553-16.277,48.828-48.828,48.828c-32.553,0-48.828-16.275-48.828-48.828h36.621
		c-0.814,9.359,1.871,15.239,8.057,17.639c6.184,2.401,11.555,0.672,16.113-5.188c5.777-13.184-2.279-26.285-24.17-39.307
		C617.709,100.922,612.378,96.854,607.822,92.784z"/>
	<path fill="none" stroke="#FFFFFF" stroke-miterlimit="10" d="M697.055,178.233v-31.738h36.621v31.738H697.055z"/>
	<path fill="none" stroke="#FFFFFF" stroke-miterlimit="10" d="M745.883,178.233v-31.738h36.621v31.738H745.883z"/>
	<path fill="none" stroke="#FFFFFF" stroke-miterlimit="10" d="M794.711,178.233v-31.738h36.621v31.738H794.711z"/>
</g>
<g>
</g>
<g>
</g>
<g>
</g>
<g>
</g>
<g>
</g>
<g>
</g>
<g>
</g>
<g>
</g>
<g>
</g>
<g>
</g>
<g>
</g>
<g>
</g>
<g>
</g>
<g>
</g>
<g>
</g>
</svg>
